<svg width="34" height="33" viewBox="0 0 34 33" fill="none" xmlns="http://www.w3.org/2000/svg">
<path fill-rule="evenodd" clip-rule="evenodd" d="M22.1385 21.537C22.3283 21.3453 22.5536 21.1931 22.8017 21.0894C23.0497 20.9856 23.3156 20.9321 23.5842 20.9321C23.8527 20.9321 24.1186 20.9856 24.3666 21.0894C24.6147 21.1931 24.84 21.3453 25.0298 21.537L32.8966 29.4778C33.28 29.8645 33.4955 30.3892 33.4957 30.9363C33.4959 31.4834 33.2808 32.0082 32.8976 32.3953C32.5145 32.7823 31.9947 32.9998 31.4527 33C30.9107 33.0002 30.3908 32.783 30.0074 32.3963L22.1405 24.4555C21.9506 24.264 21.7998 24.0365 21.697 23.7861C21.5942 23.5357 21.5413 23.2673 21.5413 22.9963C21.5413 22.7252 21.5942 22.4568 21.697 22.2065C21.7998 21.9561 21.9506 21.7286 22.1405 21.537H22.1385Z" fill="white"/>
<path fill-rule="evenodd" clip-rule="evenodd" d="M14.084 24.7505C15.5598 24.7505 17.0211 24.457 18.3846 23.8869C19.7481 23.3169 20.987 22.4813 22.0305 21.4279C23.0741 20.3745 23.9019 19.124 24.4666 17.7476C25.0314 16.3713 25.3221 14.8962 25.3221 13.4065C25.3221 11.9168 25.0314 10.4417 24.4666 9.06535C23.9019 7.68904 23.0741 6.43849 22.0305 5.38511C20.987 4.33172 19.7481 3.49613 18.3846 2.92604C17.0211 2.35596 15.5598 2.06254 14.084 2.06254C11.1035 2.06254 8.24501 3.2577 6.13746 5.38511C4.02991 7.51251 2.8459 10.3979 2.8459 13.4065C2.8459 16.4151 4.02991 19.3005 6.13746 21.4279C8.24501 23.5553 11.1035 24.7505 14.084 24.7505ZM27.3654 13.4065C27.3654 16.9621 25.9661 20.3721 23.4753 22.8863C20.9846 25.4005 17.6064 26.813 14.084 26.813C10.5615 26.813 7.18338 25.4005 4.69264 22.8863C2.2019 20.3721 0.802612 16.9621 0.802612 13.4065C0.802612 9.85087 2.2019 6.44088 4.69264 3.92667C7.18338 1.41247 10.5615 0 14.084 0C17.6064 0 20.9846 1.41247 23.4753 3.92667C25.9661 6.44088 27.3654 9.85087 27.3654 13.4065Z" fill="white"/>
</svg>
