<svg width="62" height="59" viewBox="0 0 62 59" fill="none" xmlns="http://www.w3.org/2000/svg">
<path d="M40.6005 29.3947C40.6005 31.778 39.5891 34.0638 37.7887 35.7491C35.9884 37.4344 33.5466 38.3811 31.0005 38.3811C28.4544 38.3811 26.0126 37.4344 24.2123 35.7491C22.4119 34.0638 21.4005 31.778 21.4005 29.3947C21.4005 28.8825 21.4581 28.3822 21.5573 27.8969H18.2005V39.8699C18.2005 40.7026 18.9205 41.3766 19.8101 41.3766H42.1941C42.6205 41.3758 43.029 41.2167 43.3302 40.9343C43.6314 40.6518 43.8005 40.269 43.8005 39.8699V27.8969H40.4437C40.5429 28.3822 40.6005 28.8825 40.6005 29.3947ZM31.0005 35.3857C31.8412 35.3855 32.6736 35.2303 33.4502 34.9289C34.2268 34.6276 34.9324 34.186 35.5267 33.6294C36.121 33.0728 36.5923 32.4121 36.9138 31.685C37.2354 30.9579 37.4007 30.1786 37.4005 29.3917C37.4003 28.6047 37.2345 27.8255 36.9126 27.0986C36.5907 26.3716 36.119 25.7111 35.5244 25.1548C34.9298 24.5985 34.224 24.1573 33.4472 23.8563C32.6705 23.5553 31.838 23.4005 30.9973 23.4007C29.2995 23.4011 27.6714 24.0328 26.4712 25.1569C25.2709 26.281 24.5969 27.8054 24.5973 29.3947C24.5977 30.984 25.2726 32.508 26.4734 33.6316C27.6743 34.7551 29.3027 35.3861 31.0005 35.3857ZM38.6805 23.1042H42.5173C42.7722 23.1042 43.0167 23.0096 43.1973 22.8411C43.3778 22.6727 43.4797 22.4441 43.4805 22.2055V18.6139C43.4805 18.3748 43.379 18.1455 43.1984 17.9764C43.0178 17.8073 42.7728 17.7123 42.5173 17.7123H38.6805C38.4251 17.7123 38.1801 17.8073 37.9994 17.9764C37.8188 18.1455 37.7173 18.3748 37.7173 18.6139V22.2055C37.7205 22.6998 38.1525 23.1042 38.6805 23.1042ZM31.0005 0.638C22.8531 0.638 15.0393 3.66771 9.2782 9.06064C3.51708 14.4536 0.280518 21.7679 0.280518 29.3947C0.280518 37.0214 3.51708 44.3358 9.2782 49.7287C15.0393 55.1216 22.8531 58.1514 31.0005 58.1514C35.0347 58.1514 39.0294 57.4075 42.7566 55.9624C46.4837 54.5172 49.8702 52.399 52.7228 49.7287C55.5755 47.0584 57.8383 43.8883 59.3821 40.3994C60.9259 36.9105 61.7205 33.1711 61.7205 29.3947C61.7205 25.6183 60.9259 21.8789 59.3821 18.39C57.8383 14.9011 55.5755 11.7309 52.7228 9.06064C49.8702 6.39033 46.4837 4.27213 42.7566 2.82697C39.0294 1.38181 35.0347 0.638 31.0005 0.638ZM47.0005 41.0441C47.0005 42.8744 45.4005 44.3721 43.4453 44.3721H18.5557C16.6005 44.3721 15.0005 42.8744 15.0005 41.0441V17.7452C15.0005 15.915 16.6005 14.4172 18.5557 14.4172H43.4453C45.4005 14.4172 47.0005 15.915 47.0005 17.7452V41.0441Z" fill="#DB5151"/>
</svg>
