<svg width="62" height="59" viewBox="0 0 62 59" fill="none" xmlns="http://www.w3.org/2000/svg">
<path d="M31.0006 0.638C14.0342 0.638 0.280548 13.5126 0.280548 29.3947C0.280548 45.2768 14.0342 58.1514 31.0006 58.1514C47.967 58.1514 61.7206 45.2768 61.7206 29.3947C61.7206 13.5126 47.967 0.638 31.0006 0.638ZM43.4966 24.1945C43.5094 24.4401 43.5126 24.6858 43.5126 24.9254C43.5126 32.4141 37.4294 41.0441 26.2998 41.0441C23.0111 41.0493 19.7908 40.1651 17.0261 38.498C17.4965 38.5519 17.9797 38.5729 18.4693 38.5729C21.3046 38.5729 23.9126 37.6712 25.983 36.1495C24.7212 36.1263 23.4987 35.7352 22.4857 35.0307C21.4727 34.3263 20.7197 33.3435 20.3317 32.2194C21.2378 32.3807 22.1713 32.3469 23.0613 32.1206C21.6919 31.8614 20.4604 31.1667 19.5756 30.1545C18.6908 29.1423 18.2073 27.8748 18.2069 26.5669V26.498C19.0229 26.9204 19.9573 27.178 20.9494 27.208C19.6655 26.408 18.7567 25.179 18.4087 23.7725C18.0607 22.3661 18.2999 20.8883 19.0774 19.6414C20.5972 21.3907 22.4926 22.8218 24.6408 23.842C26.789 24.8621 29.1421 25.4486 31.5478 25.5635C31.2419 24.3482 31.3735 23.0724 31.9222 21.9344C32.4708 20.7964 33.4057 19.86 34.5816 19.2707C35.7574 18.6814 37.1083 18.4723 38.4242 18.6758C39.7401 18.8794 40.9473 19.4842 41.8582 20.3962C43.2123 20.1454 44.5109 19.6805 45.6982 19.0213C45.2468 20.3337 44.3019 21.4482 43.039 22.1576C44.2385 22.0223 45.4097 21.7205 46.5142 21.2619C45.7029 22.3999 44.681 23.393 43.4966 24.1945Z" fill="#DB5151"/>
</svg>
