<svg width="62" height="59" viewBox="0 0 62 59" fill="none" xmlns="http://www.w3.org/2000/svg">
<path d="M36.1302 28.8944L28.943 25.7552C28.3158 25.4826 27.8006 25.7881 27.8006 26.4381V32.3512C27.8006 33.0013 28.3158 33.3068 28.943 33.0342L36.127 29.8949C36.7574 29.6193 36.7574 29.17 36.1302 28.8944ZM31.0006 0.638C14.0342 0.638 0.280579 13.5126 0.280579 29.3947C0.280579 45.2768 14.0342 58.1514 31.0006 58.1514C47.967 58.1514 61.7206 45.2768 61.7206 29.3947C61.7206 13.5126 47.967 0.638 31.0006 0.638ZM31.0006 41.0771C15.2758 41.0771 15.0006 39.7501 15.0006 29.3947C15.0006 19.0393 15.2758 17.7123 31.0006 17.7123C46.7254 17.7123 47.0006 19.0393 47.0006 29.3947C47.0006 39.7501 46.7254 41.0771 31.0006 41.0771Z" fill="#DB5151"/>
</svg>
