<svg width="18" height="16" viewBox="0 0 18 16" fill="none" xmlns="http://www.w3.org/2000/svg">
<path d="M2.99997 0.947276L8.99997 6.34728L15 0.963639C15.1181 0.855458 15.2599 0.770516 15.4164 0.714183C15.5729 0.65785 15.7406 0.631353 15.9091 0.636366C16.2396 0.655617 16.551 0.782479 16.7852 0.993264C17.0194 1.20405 17.1604 1.48435 17.1818 1.78182C17.1834 1.92808 17.1521 2.07312 17.0895 2.20814C17.027 2.34316 16.9347 2.46534 16.8182 2.56728L10.8 8L16.8182 13.4327C17.0545 13.6389 17.1854 13.9236 17.1818 14.2182C17.1604 14.5157 17.0194 14.796 16.7852 15.0067C16.551 15.2175 16.2396 15.3444 15.9091 15.3636C15.7406 15.3687 15.5729 15.3422 15.4164 15.2858C15.2599 15.2295 15.1181 15.1445 15 15.0364L8.99997 9.65273L3.01815 15.0364C2.90002 15.1445 2.75823 15.2295 2.60175 15.2858C2.44527 15.3422 2.2775 15.3687 2.10906 15.3636C1.77237 15.3479 1.45411 15.2204 1.21571 15.0058C0.977309 14.7913 0.835677 14.5048 0.818152 14.2018C0.816507 14.0556 0.84789 13.9105 0.910398 13.7755C0.972906 13.6405 1.06524 13.5183 1.18179 13.4164L7.19997 8L1.16361 2.56728C1.05034 2.46396 0.961366 2.34116 0.902012 2.20621C0.842657 2.07125 0.814136 1.92692 0.818152 1.78182C0.839541 1.48435 0.980499 1.20405 1.21471 0.993264C1.44891 0.782479 1.76035 0.655617 2.09088 0.636366C2.25801 0.629222 2.42499 0.653141 2.58139 0.706633C2.7378 0.760124 2.88029 0.842041 2.99997 0.947276Z" fill="black"/>
</svg>
