<svg width="18" height="17" viewBox="0 0 18 17" fill="none" xmlns="http://www.w3.org/2000/svg">
<path d="M6.03914 1.93886C5.76011 1.93918 5.49261 2.03311 5.29549 2.19999C5.09837 2.36686 4.98777 2.59302 4.98804 2.8287C4.9883 3.06439 5.0994 3.29029 5.29689 3.45672C5.49438 3.62315 5.76209 3.71647 6.04112 3.71616C6.32016 3.71584 6.58766 3.62191 6.78478 3.45503C6.9819 3.28815 7.09249 3.062 7.09223 2.82631C7.09196 2.59063 6.98087 2.36473 6.78338 2.1983C6.58588 2.03187 6.31817 1.93855 6.03914 1.93886ZM3.06171 1.94225C3.2785 1.42167 3.68109 0.970636 4.214 0.651322C4.74691 0.332008 5.3839 0.160134 6.03716 0.159392C6.69042 0.15865 7.32779 0.329075 7.86141 0.647177C8.39503 0.965279 8.79863 1.41539 9.01657 1.93548L16.5601 1.92691C16.8391 1.92659 17.1068 2.01991 17.3043 2.18634C17.5018 2.35277 17.6129 2.57867 17.6132 2.81436C17.6134 3.05004 17.5028 3.2762 17.3057 3.44308C17.1086 3.60995 16.8411 3.70388 16.5621 3.7042L9.01855 3.71277C8.80177 4.23335 8.39917 4.68438 7.86626 5.0037C7.33335 5.32301 6.69636 5.49488 6.0431 5.49563C5.38985 5.49637 4.75248 5.32594 4.21886 5.00784C3.68524 4.68974 3.28164 4.23962 3.06369 3.71954L1.83274 3.72094C1.55371 3.72125 1.286 3.62793 1.08851 3.4615C0.891018 3.29507 0.779921 3.06917 0.779658 2.83349C0.779395 2.5978 0.889989 2.37165 1.08711 2.20477C1.28423 2.03789 1.55173 1.94396 1.83076 1.94364L3.06171 1.94225ZM12.3577 7.26357C12.0786 7.26389 11.8111 7.35781 11.614 7.52469C11.4169 7.69157 11.3063 7.91773 11.3065 8.15341C11.3068 8.38909 11.4179 8.615 11.6154 8.78143C11.8129 8.94786 12.0806 9.04118 12.3596 9.04086C12.6387 9.04054 12.9062 8.94661 13.1033 8.77974C13.3004 8.61286 13.411 8.3867 13.4107 8.15102C13.4105 7.91534 13.2994 7.68943 13.1019 7.523C12.9044 7.35657 12.6367 7.26325 12.3577 7.26357ZM9.38022 7.26695C9.59701 6.74637 9.9996 6.29534 10.5325 5.97603C11.0654 5.65671 11.7024 5.48484 12.3557 5.4841C13.0089 5.48336 13.6463 5.65378 14.1799 5.97188C14.7135 6.28998 15.1171 6.7401 15.3351 7.26019L16.566 7.25879C16.8451 7.25847 17.1128 7.35179 17.3103 7.51822C17.5078 7.68465 17.6189 7.91055 17.6191 8.14624C17.6194 8.38192 17.5088 8.60808 17.3117 8.77495C17.1145 8.94183 16.847 9.03576 16.568 9.03608L15.3371 9.03748C15.1203 9.55806 14.7177 10.0091 14.1848 10.3284C13.6519 10.6477 13.0149 10.8196 12.3616 10.8203C11.7084 10.8211 11.071 10.6506 10.5374 10.3325C10.0037 10.0144 9.60015 9.56433 9.3822 9.04424L1.83868 9.05282C1.55965 9.05313 1.29194 8.95981 1.09445 8.79338C0.896959 8.62695 0.785861 8.40105 0.785599 8.16537C0.785336 7.92968 0.89593 7.70352 1.09305 7.53665C1.29017 7.36977 1.55767 7.27584 1.8367 7.27552L9.38022 7.26695ZM6.05102 12.6026C5.77199 12.6029 5.50449 12.6969 5.30737 12.8637C5.11025 13.0306 4.99966 13.2568 4.99992 13.4925C5.00018 13.7281 5.11128 13.9541 5.30877 14.1205C5.50626 14.2869 5.77397 14.3802 6.053 14.3799C6.33204 14.3796 6.59954 14.2857 6.79666 14.1188C6.99378 13.9519 7.10437 13.7258 7.10411 13.4901C7.10385 13.2544 6.99275 13.0285 6.79526 12.8621C6.59776 12.6956 6.33006 12.6023 6.05102 12.6026ZM3.0736 12.606C3.29038 12.0854 3.69297 11.6344 4.22589 11.3151C4.7588 10.9958 5.39578 10.8239 6.04904 10.8231C6.7023 10.8224 7.33967 10.9928 7.87329 11.3109C8.40691 11.629 8.81051 12.0792 9.02845 12.5992L16.572 12.5907C16.851 12.5903 17.1187 12.6837 17.3162 12.8501C17.5137 13.0165 17.6248 13.2424 17.6251 13.4781C17.6253 13.7138 17.5147 13.94 17.3176 14.1068C17.1205 14.2737 16.853 14.3676 16.574 14.368L9.03043 14.3765C8.81365 14.8971 8.41105 15.3481 7.87814 15.6675C7.34523 15.9868 6.70825 16.1586 6.05499 16.1594C5.40173 16.1601 4.76436 15.9897 4.23074 15.6716C3.69712 15.3535 3.29352 14.9034 3.07558 14.3833L1.84462 14.3847C1.56559 14.385 1.29788 14.2917 1.10039 14.1253C0.902899 13.9588 0.791802 13.7329 0.791539 13.4972C0.791277 13.2616 0.90187 13.0354 1.09899 12.8685C1.29611 12.7016 1.56361 12.6077 1.84264 12.6074L3.0736 12.606Z" fill="black"/>
</svg>
