<svg width="17" height="15" viewBox="0 0 17 15" fill="none" xmlns="http://www.w3.org/2000/svg">
<path d="M1.18773 1.96333L6.79478 8.47945C6.87862 8.57552 6.92528 8.69844 6.92632 8.82594L6.93078 12.7877C6.9303 12.8432 6.94737 12.8975 6.97956 12.9427C7.01175 12.9879 7.05742 13.0218 7.11002 13.0395L9.77225 13.9221C9.81204 13.9353 9.85442 13.9389 9.89587 13.9325C9.93732 13.9261 9.97665 13.9099 10.0106 13.8853C10.0445 13.8606 10.0721 13.8282 10.091 13.7908C10.1099 13.7534 10.1196 13.7119 10.1193 13.67L10.1138 8.82235C10.115 8.69463 10.162 8.57158 10.2462 8.47556L15.8369 1.94685C15.8948 1.87936 15.932 1.7967 15.9443 1.70868C15.9566 1.62067 15.9434 1.53097 15.9063 1.45023C15.8691 1.36948 15.8096 1.30108 15.7348 1.25311C15.66 1.20514 15.573 1.17963 15.4841 1.17959L1.54048 1.19528C1.45147 1.1952 1.36431 1.22068 1.28935 1.26869C1.2144 1.3167 1.1548 1.38522 1.11765 1.46611C1.0805 1.547 1.06736 1.63686 1.07978 1.725C1.0922 1.81314 1.12967 1.89586 1.18773 1.96333Z" stroke="black" stroke-linecap="round" stroke-linejoin="round"/>
</svg>
